<?xml version="1.0" encoding="UTF-8"?> <svg xmlns="http://www.w3.org/2000/svg" xmlns:xlink="http://www.w3.org/1999/xlink" id="Group_1736" data-name="Group 1736" width="47.492" height="38.86" viewBox="0 0 47.492 38.86"><defs><linearGradient id="linear-gradient" x1="0.5" x2="0.5" y2="1.232" gradientUnits="objectBoundingBox"><stop offset="0" stop-color="#5d84db"></stop><stop offset="1" stop-color="#24cec5"></stop></linearGradient></defs><g id="Group_183" data-name="Group 183" transform="translate(0)"><path id="Path_260" data-name="Path 260" d="M3,.86C2.8.146,2.327,0,1.684,0h-.7A1.007,1.007,0,0,0,.174.313a.8.8,0,0,0-.122.8l8,29.295a.528.528,0,0,0,1.011.02l.816-2.582A1.661,1.661,0,0,0,9.9,26.92Z" fill="url(#linear-gradient)"></path><path id="Path_261" data-name="Path 261" d="M37.156.65A.7.7,0,0,0,37,.313,1.007,1.007,0,0,0,36.182,0h-.861a1.1,1.1,0,0,0-1.16.722c-.016.044-8.708,32.837-8.708,32.837L15.019.846a1.078,1.078,0,0,0-.745-.783l-.014,0A1.522,1.522,0,0,0,13.818,0h-.886a1.351,1.351,0,0,0-.15.008h0a1.092,1.092,0,0,0-1.008.841L.053,37.714a.8.8,0,0,0,.122.8,1.007,1.007,0,0,0,.813.313H1.9a1.1,1.1,0,0,0,1.2-.862l10.285-32.2,9.639,29.6.817,2.615a1.077,1.077,0,0,0,.738.78,1.493,1.493,0,0,0,.463.066h.886a1.342,1.342,0,0,0,.15-.008h0a1.092,1.092,0,0,0,1.008-.841L37.1,1.224a.986.986,0,0,0,.067-.332h0A.834.834,0,0,0,37.156.65Z" transform="translate(10.322 0.033)" fill="url(#linear-gradient)"></path></g></svg> 